HIERARCHY
ROOT Hips
{
	OFFSET 0.000000 0.000000 0.000000
	CHANNELS 6 Xposition Yposition Zposition Zrotation Yrotation Xrotation 
	JOINT LHipJoint
	{
		OFFSET 0.000000 0.000000 0.000000
		CHANNELS 3 Zrotation Yrotation Xrotation
		JOINT LeftUpLeg
		{
			OFFSET 1.363060 -1.794630 0.839290
			CHANNELS 3 Zrotation Yrotation Xrotation
			JOINT LeftLeg
			{
				OFFSET 2.448110 -6.726130 0.000000
				CHANNELS 3 Zrotation Yrotation Xrotation
				JOINT LeftFoot
				{
					OFFSET 2.562200 -7.039590 0.000000
					CHANNELS 3 Zrotation Yrotation Xrotation
					JOINT LeftToeBase
					{
						OFFSET 0.157640 -0.433110 2.322550
						CHANNELS 3 Zrotation Yrotation Xrotation
						End Site
						{
							OFFSET 0.000000 0.000000 0.000000
						}
					}
				}
			}
		}
	}
	JOINT RHipJoint
	{
		OFFSET 0.000000 0.000000 0.000000
		CHANNELS 3 Zrotation Yrotation Xrotation
		JOINT RightUpLeg
		{
			OFFSET -1.305520 -1.794630 0.839290
			CHANNELS 3 Zrotation Yrotation Xrotation
			JOINT RightLeg
			{
				OFFSET -2.542530 -6.985550 0.000000
				CHANNELS 3 Zrotation Yrotation Xrotation
				JOINT RightFoot
				{
					OFFSET -2.568260 -7.056230 0.000000
					CHANNELS 3 Zrotation Yrotation Xrotation
					JOINT RightToeBase
					{
						OFFSET -0.164730 -0.452590 2.363150
						CHANNELS 3 Zrotation Yrotation Xrotation
						End Site
						{
							OFFSET 0.000000 0.000000 0.000000
						}
					}
				}
			}
		}
	}
}
MOTION
Frames: 22
Frame Time: 0.008333
5.064356 17.333966 0.899541 -143.738010 -84.823864 155.808631 -10.337596 3.314506 3.023055 -6.678492 17.776106 -19.533522 -2.992737 -1.390337 1.172519 0.409170 2.753070 -0.930572 0.476300 -0.000000 -28.394400 9.667474 -2.519156 5.515563 8.348397 -0.012965 -13.056327 3.133301 2.456638 -4.163910 -0.215664 -3.675582 0.415045 -1.442500 -0.000001 -34.207599
5.057312 17.333282 0.896659 -112.618226 -86.776458 124.968314 -10.220927 2.897211 3.108189 -6.556817 16.464899 -19.875870 -2.956000 -1.590414 1.454255 0.291819 2.228973 -0.726991 0.459400 0.000000 -28.497600 9.768908 -2.943394 5.591622 8.594552 -0.683546 -13.460562 3.020390 2.297753 -4.161349 -0.414574 -4.669777 -0.093061 -1.603000 -0.000001 -33.743400
5.052243 17.332553 0.893864 -60.924646 -88.318439 73.552408 -11.214508 2.582314 3.297615 -6.919869 15.210467 -20.203467 -2.893093 -1.655069 1.493051 0.229107 1.899918 -0.493960 0.445400 0.000000 -28.577000 8.789146 -3.257800 5.512185 8.299089 -1.279283 -13.761580 2.992490 2.282383 -4.012072 -0.540156 -5.494216 -0.587171 -1.768200 -0.000000 -33.243100
5.047232 17.330877 0.896288 -25.412980 -88.279273 38.411526 -11.840305 2.944522 3.949434 -6.884874 13.258958 -20.935024 -2.786213 -1.446759 1.522426 0.295636 1.957088 -0.522074 0.439000 0.000000 -28.569600 8.111917 -2.901779 5.070687 8.510415 -2.594713 -14.108337 3.131231 2.521006 -3.467930 -0.469239 -5.850235 -0.950217 -1.911300 0.000001 -32.634899
5.046817 17.330257 0.893101 -17.697423 -87.483278 30.996068 -11.734435 3.076008 4.192313 -6.825553 12.263750 -21.276497 -2.774660 -1.401353 1.335548 0.278746 1.745093 -0.309758 0.427400 -0.000000 -28.610500 8.187760 -2.728491 4.929615 8.629039 -2.932174 -14.383097 3.097088 2.580394 -3.169214 -0.512386 -6.552515 -1.302844 -2.078700 0.000000 -32.076800
5.049196 17.329997 0.889032 -13.101422 -86.474789 26.705223 -11.588692 3.134547 4.376944 -6.764312 11.296369 -21.554221 -2.767509 -1.389098 1.108047 0.247116 1.499590 -0.035460 0.415600 -0.000000 -28.634800 8.310260 -2.609746 4.798937 8.739303 -3.267489 -14.672600 3.044369 2.603398 -2.901944 -0.564525 -7.268255 -1.661984 -2.242600 -0.000000 -31.496400
5.054301 17.330317 0.883891 -9.989279 -85.385803 23.908759 -11.443216 3.146211 4.516979 -6.722987 10.372194 -21.795960 -2.764943 -1.394481 0.843267 0.207849 1.244101 0.291293 0.403700 0.000001 -28.648400 8.437554 -2.520297 4.672032 8.823027 -3.577565 -14.977539 2.981781 2.605714 -2.655685 -0.618001 -7.978965 -2.014917 -2.403900 -0.000000 -30.892200
5.062305 17.331412 0.877371 -7.661159 -84.279570 21.898627 -11.305676 3.124176 4.614427 -6.706116 9.501584 -21.994427 -2.766566 -1.409650 0.542025 0.165092 0.996135 0.666713 0.392600 0.000000 -28.657000 8.562434 -2.445730 4.540229 8.871560 -3.862834 -15.281475 2.912720 2.592827 -2.426848 -0.668630 -8.663115 -2.351220 -2.559600 -0.000000 -30.273500
5.073542 17.333488 0.869056 -5.797477 -83.189660 20.338470 -11.178290 3.074417 4.663387 -6.716953 8.718062 -22.145129 -2.774306 -1.428690 0.225778 0.118647 0.742983 1.081754 0.378900 0.000000 -28.660900 8.683370 -2.379254 4.396867 8.883731 -4.130468 -15.560157 2.839393 2.566756 -2.216843 -0.714535 -9.302182 -2.662537 -2.705300 -0.000000 -29.642300
5.088015 17.336749 0.858906 -4.229407 -82.127376 19.059468 -11.061016 3.001396 4.671622 -6.751782 8.002989 -22.253177 -2.785810 -1.449848 -0.101761 0.072019 0.507368 1.534001 0.365500 0.000000 -28.666700 8.799288 -2.317974 4.243097 8.862497 -4.381426 -15.814390 2.763668 2.530059 -2.030191 -0.756767 -9.895267 -2.940151 -2.841100 -0.000000 -29.007200
5.105700 17.341316 0.846790 -2.863824 -81.103286 17.958647 -10.954732 2.908050 4.638768 -6.807006 7.362193 -22.310703 -2.800179 -1.470535 -0.429948 0.026193 0.291445 2.017316 0.352400 -0.000000 -28.675200 8.909654 -2.260057 4.075029 8.810510 -4.625936 -16.026921 2.687162 2.483664 -1.871064 -0.795760 -10.433296 -3.175802 -2.964500 -0.000000 -28.377600
5.126542 17.347219 0.832761 -1.674041 -80.125101 17.003160 -10.861351 2.796824 4.566238 -6.879298 6.811420 -22.330996 -2.817773 -1.488422 -0.736051 -0.019381 0.083170 2.518305 0.337100 -0.000000 -28.684500 9.011531 -2.206055 3.895248 8.737891 -4.864399 -16.190661 2.612303 2.430017 -1.747823 -0.834186 -10.915478 -3.361885 -3.074200 -0.000001 -27.753400
5.150438 17.354452 0.816971 -0.631945 -79.199581 16.158821 -10.781687 2.670445 4.457978 -6.961085 6.343943 -22.309133 -2.836178 -1.502474 -1.017444 -0.062834 -0.106994 3.029880 0.321200 0.000000 -28.693500 9.103797 -2.155745 3.703056 8.650841 -5.102150 -16.296501 2.540779 2.370586 -1.665891 -0.873691 -11.338810 -3.490623 -3.168800 -0.000001 -27.146700
5.177043 17.362854 0.799678 0.262885 -78.334889 15.424065 -10.716682 2.531584 4.319567 -7.045094 5.960065 -22.254489 -2.854062 -1.512271 -1.266092 -0.103278 -0.276499 3.540441 0.305200 0.000000 -28.700600 9.184304 -2.110624 3.503707 8.559378 -5.333803 -16.344638 2.474507 2.307972 -1.633107 -0.917138 -11.705520 -3.556774 -3.248000 -0.000000 -26.562800
5.206401 17.372316 0.781055 1.031341 -77.538737 14.765421 -10.666516 2.382168 4.151518 -7.122822 5.655206 -22.147564 -2.868690 -1.516905 -1.485100 -0.139022 -0.415296 4.042273 0.291200 -0.000000 -28.700401 9.253625 -2.069995 3.291546 8.466676 -5.572732 -16.318881 2.414501 2.241747 -1.648300 -0.964182 -12.006342 -3.554311 -3.309600 0.000000 -26.023400
5.237719 17.382476 0.761559 1.658554 -76.821346 14.204760 -10.630849 2.225367 3.963560 -7.188064 5.430127 -22.010020 -2.879774 -1.517710 -1.667987 -0.169689 -0.521565 4.522108 0.280400 0.000000 -28.693100 9.310060 -2.037814 3.080376 8.384315 -5.799970 -16.233400 2.362312 2.175438 -1.720387 -1.017942 -12.248064 -3.482652 -3.354200 0.000000 -25.526600
5.270590 17.393011 0.741522 2.152488 -76.192890 13.728579 -10.608447 2.064009 3.761142 -7.234820 5.281874 -21.837752 -2.886058 -1.515389 -1.816863 -0.194408 -0.588232 4.970706 0.275000 0.000001 -28.676900 9.354605 -2.015835 2.874304 8.316322 -6.014293 -16.087607 2.318474 2.109662 -1.848109 -1.078051 -12.426967 -3.342048 -3.380900 0.000000 -25.084800
5.304326 17.403580 0.721274 2.520716 -75.666697 13.326473 -10.597429 1.901952 3.551962 -7.259305 5.208274 -21.628626 -2.886974 -1.511492 -1.938281 -0.212574 -0.608011 5.380938 0.277600 0.000000 -28.654300 9.388711 -2.006449 2.681535 8.264519 -6.207483 -15.885758 2.283042 2.045477 -2.028808 -1.143614 -12.540720 -3.137839 -3.389200 -0.000000 -24.703000
5.338155 17.413781 0.701167 2.772547 -75.252712 12.992272 -10.595852 1.743548 3.343265 -7.260662 5.207783 -21.393174 -2.882785 -1.506570 -2.027575 -0.224392 -0.582849 5.742647 0.288700 0.000000 -28.625100 9.413720 -2.010611 2.508366 8.231725 -6.375972 -15.638747 2.256444 1.984518 -2.257670 -1.212786 -12.587873 -2.875237 -3.379600 0.000000 -24.390900
5.371157 17.423284 0.681517 2.920102 -74.961510 12.723040 -10.601665 1.593196 3.141777 -7.241034 5.278384 -21.147068 -2.874406 -1.501547 -2.083456 -0.230247 -0.515676 6.049159 0.308500 0.000000 -28.593600 9.430958 -2.028308 2.361801 8.218237 -6.510437 -15.362560 2.238663 1.929133 -2.529965 -1.283266 -12.569178 -2.563838 -3.352800 0.000000 -24.146200
5.402540 17.431868 0.662483 2.991760 -74.801090 12.492257 -10.613310 1.453963 2.948582 -7.203559 5.414912 -20.877677 -2.862091 -1.497643 -2.124470 -0.229914 -0.402022 6.304112 0.338300 -0.000000 -28.567200 9.442636 -2.057385 2.240487 8.216081 -6.608884 -15.059976 2.228455 1.879101 -2.831585 -1.350586 -12.480730 -2.219010 -3.308400 -0.000000 -23.965200
5.431345 17.439314 0.644272 3.008810 -74.762542 12.295035 -10.629418 1.327096 2.763998 -7.154390 5.610943 -20.601814 -2.847679 -1.495178 -2.148064 -0.224660 -0.253702 6.506250 0.375800 0.000000 -28.549500 9.449929 -2.095318 2.143240 8.222490 -6.671025 -14.747877 2.225074 1.835280 -3.151776 -1.411381 -12.327305 -1.855406 -3.248300 0.000000 -23.842700
